<svg xmlns="http://www.w3.org/2000/svg" viewBox="0 0 32 40" x="0px" y="0px"><g data-name="19 Island"><path d="M7.29,7C2.74,5.39,2.05,2.37,2,2.2a1,1,0,0,1,.21-.83A1,1,0,0,1,3,1c7.05,0,10.13,2.93,11.3,4.56C16,4.54,20,3.1,26.48,5.93a1,1,0,0,1,.42,1.49c-.09.13-1.7,2.33-5.83,2.33-.29,0-.59,0-.9,0C23.67,13,23.08,16,23,16.21a1,1,0,0,1-.52.68,1.07,1.07,0,0,1-.46.11,1.14,1.14,0,0,1-.4-.08c-4.12-1.81-6.26-4.06-7.4-6-.17,1.12-.35,2.48-.51,4.11-1.36-.08-3.57-.09-5.21,0a34.29,34.29,0,0,1,1.3-3.25A17.82,17.82,0,0,1,3,13a1,1,0,0,1-.77-.37A1,1,0,0,1,2,11.8C2.05,11.63,2.74,8.61,7.29,7Zm6.06,13.1c.06-1.09.13-2.11.21-3.05-1.47-.07-4.17-.06-5.66,0-.26.93-.51,1.94-.74,3A49.17,49.17,0,0,1,13.35,20.1Zm16.17,8C24.09,24.8,18.61,23.5,13.14,24.2c0-.72.06-1.43.09-2.11a43.17,43.17,0,0,0-6.46.06c-.21,1.26-.38,2.6-.51,4a31.27,31.27,0,0,0-3.78,2A1,1,0,0,0,2,29.27,1,1,0,0,0,3,30H29a1,1,0,0,0,1-.73A1,1,0,0,0,29.52,28.15Z"/></g><text x="0" y="47" fill="#000000" font-size="5px" font-weight="bold" font-family="'Helvetica Neue', Helvetica, Arial-Unicode, Arial, Sans-serif">Created by cataicon</text><text x="0" y="52" fill="#000000" font-size="5px" font-weight="bold" font-family="'Helvetica Neue', Helvetica, Arial-Unicode, Arial, Sans-serif">from the Noun Project</text></svg>